<?xml version="1.0" standalone="no"?>
<!DOCTYPE svg PUBLIC "-//W3C//DTD SVG 20010904//EN"
 "http://www.w3.org/TR/2001/REC-SVG-20010904/DTD/svg10.dtd">
<svg version="1.0" xmlns="http://www.w3.org/2000/svg"
 width="1291.000000pt" height="1291.000000pt" viewBox="0 0 1291.000000 1291.000000"
 preserveAspectRatio="xMidYMid meet">
<metadata>
Created by potrace 1.11, written by Peter Selinger 2001-2013
</metadata>
<g transform="translate(0.000000,1291.000000) scale(0.100000,-0.100000)"
fill="#000000" stroke="none">
<path d="M4880 12894 c8 -11 60 -73 115 -139 55 -66 118 -143 140 -169 33 -41
141 -170 217 -261 9 -11 55 -67 103 -125 48 -58 97 -116 109 -130 11 -14 50
-61 86 -105 35 -44 67 -82 70 -85 3 -3 49 -57 101 -120 52 -63 143 -173 202
-245 60 -71 124 -148 142 -170 89 -108 598 -722 668 -805 43 -52 86 -104 96
-115 9 -11 63 -76 120 -145 56 -69 118 -143 136 -165 18 -22 83 -100 144 -173
61 -74 111 -137 111 -141 0 -11 -95 -99 -165 -152 -185 -142 -410 -258 -652
-339 -85 -28 -166 -54 -179 -56 -14 -2 -64 -14 -112 -25 -48 -12 -98 -23 -112
-25 -14 -2 -41 -7 -60 -10 -61 -10 -73 -12 -160 -23 -150 -19 -278 -28 -425
-30 l-91 -1 0 -610 c0 -607 0 -610 21 -611 366 -10 568 -33 841 -95 223 -49
516 -160 673 -254 46 -27 88 -50 93 -50 4 0 8 -4 8 -10 0 -5 5 -10 12 -10 39
0 340 -266 413 -365 17 -22 32 -42 35 -45 14 -13 89 -131 117 -185 190 -364
195 -779 14 -1145 -228 -459 -727 -798 -1391 -944 -101 -22 -290 -52 -445 -71
-27 -3 -264 -8 -525 -11 -261 -4 -477 -8 -479 -10 -3 -2 80 -106 99 -124 3 -3
87 -102 185 -220 99 -118 186 -221 193 -228 7 -8 56 -66 109 -130 54 -64 100
-119 103 -122 3 -3 25 -30 50 -60 25 -30 47 -57 50 -60 3 -3 66 -77 140 -165
74 -88 168 -200 210 -250 42 -49 127 -151 189 -225 62 -74 123 -146 135 -160
12 -14 68 -81 126 -150 57 -69 109 -130 115 -136 5 -6 26 -30 45 -54 19 -24
40 -48 45 -54 6 -6 103 -121 215 -255 113 -134 272 -323 353 -420 82 -97 156
-185 165 -196 10 -11 78 -92 152 -180 74 -88 168 -200 209 -250 42 -49 78 -92
81 -95 3 -3 77 -90 164 -195 87 -104 180 -215 206 -245 26 -30 94 -111 151
-180 57 -69 106 -127 109 -130 3 -3 86 -101 184 -218 l179 -213 953 3 954 3
-3 290 -2 290 -816 0 -816 0 -167 200 c-92 110 -177 211 -189 225 -42 48 -132
155 -149 175 -29 35 -149 178 -197 234 -69 82 -121 144 -140 166 -13 16 -321
383 -403 480 -9 11 -106 126 -215 255 -109 130 -216 258 -238 284 -22 27 -45
54 -50 60 -12 13 -159 187 -355 421 -74 88 -184 219 -245 291 -603 715 -669
794 -663 799 1 1 28 6 59 9 31 4 66 8 77 11 11 2 36 6 56 9 181 29 536 126
659 180 18 7 57 24 87 36 149 61 324 154 460 246 387 259 659 588 814 983 38
97 89 280 101 366 4 28 9 61 12 75 9 53 10 339 2 405 -13 106 -24 168 -41 230
-5 22 -12 49 -14 59 -8 43 -49 156 -89 251 -254 587 -798 1042 -1526 1273
-108 35 -317 89 -376 97 -21 4 -45 8 -53 10 -8 2 -31 7 -50 10 -19 3 -60 10
-90 15 -30 5 -84 12 -120 16 -36 4 -68 11 -71 15 -4 8 -5 48 0 95 1 6 9 11 19
11 17 -1 129 12 167 19 10 2 37 6 60 10 22 3 104 19 182 35 529 109 980 324
1337 636 l68 61 126 -152 c69 -83 159 -191 200 -241 41 -49 84 -101 96 -115
11 -14 50 -61 86 -105 36 -44 68 -82 71 -85 3 -3 48 -57 99 -120 52 -63 100
-121 107 -128 7 -7 29 -34 50 -60 21 -26 50 -60 64 -75 l26 -29 454 2 c391 1
1490 8 1527 10 9 0 12 64 10 291 l-1 290 -864 -5 c-474 -3 -863 -3 -863 2 0 4
-13 21 -28 38 -15 17 -101 121 -192 230 -91 110 -174 210 -186 224 -12 14
-110 131 -218 261 l-196 237 54 113 c83 176 139 358 167 539 21 139 18 406 -7
560 -17 110 -115 423 -144 465 -4 6 -27 48 -51 95 -232 454 -686 839 -1254
1063 -133 53 -353 122 -452 143 -6 1 -53 11 -105 22 -51 12 -113 24 -138 28
-25 4 -47 8 -50 9 -4 1 -97 13 -150 20 -8 1 -51 5 -95 10 -44 4 -91 9 -105 12
-14 2 -243 7 -510 10 -473 5 -484 5 -470 -13z m1478 -664 c446 -106 801 -290
1066 -554 234 -232 379 -517 412 -806 13 -108 6 -333 -11 -360 -2 -3 -6 -21
-9 -40 -3 -19 -13 -62 -23 -94 l-18 -59 -40 49 c-35 44 -261 316 -870 1049
-105 127 -260 313 -344 415 -84 102 -174 209 -200 239 -25 29 -50 60 -54 67
-4 8 -21 28 -38 46 -17 18 -40 46 -51 61 l-21 29 38 -6 c20 -4 94 -20 163 -36z"/>
<path d="M3433 12852 l-21 -3 0 -6100 c0 -3355 -2 -6103 -5 -6105 -3 -3 -281
-6 -618 -7 l-614 -2 0 -310 0 -310 931 -1 931 -1 0 6419 0 6418 -31 1 c-111 3
-555 3 -573 1z"/>
</g>
</svg>
